# xmcd
#
# Track frame offsets:
#	150
#	20464
#	36387
#	54313
#	71971
#	95730
#	114845
#	141329
#	160063
#	175912
#	193972
#	208505
#	220208
#	236683
#	250904
#	263673
#
# Disc length: 3747 seconds
# Revision: 0
# Processed by: cddbd v1.5.2PL0 Copyright (c) Steve Scherf et al.
# Submitted via: dBpowerAMP V12.0
#
DISCID=ee0ea110
DTITLE=Paul Chet And The Whiskey Chickens - Baked Not Fried
DYEAR=2019
DGENRE=Country
TTITLE0=Rocky Mountain High
TTITLE1=Cadillac Cowboy
TTITLE2=South of Sober
TTITLE3=Mr. Bojangles
TTITLE4=Bleed Red
TTITLE5=The Devil Went Down to Georgia
TTITLE6=Someone Like You
TTITLE7=Rodeo Rider
TTITLE8=Somebody Call the Doctor
TTITLE9=Tennessee Line
TTITLE10=I've Got a Name
TTITLE11=Outlaws and Inlaws
TTITLE12=Sweet Southern Comfort
TTITLE13=Takin' Pills
TTITLE14=Much Too Young (To Feel This Damn Old)
TTITLE15=This Little Light of Mine
EXTD=
EXTT0=
EXTT1=
EXTT2=
EXTT3=
EXTT4=
EXTT5=
EXTT6=
EXTT7=
EXTT8=
EXTT9=
EXTT10=
EXTT11=
EXTT12=
EXTT13=
EXTT14=
EXTT15=
PLAYORDER=
